<mxfile host="65bd71144e">
    <diagram id="mV6JEWCJ66KR-k56K3II" name="Circuit">
        <mxGraphModel dx="937" dy="547" grid="1" gridSize="10" guides="1" tooltips="1" connect="1" arrows="1" fold="1" page="1" pageScale="1" pageWidth="1000" pageHeight="1000" background="#FFFFFF" math="0" shadow="1">
            <root>
                <mxCell id="0"/>
                <mxCell id="1" parent="0"/>
                <mxCell id="112" value="num&lt;div&gt;decoder&lt;/div&gt;" style="externalPins=0;recursiveResize=0;shadow=0;dashed=0;align=center;html=1;strokeWidth=1;shape=mxgraph.rtl.abstract.entity;container=1;collapsible=0;kind=sequential;drawPins=0;left=3;right=2;bottom=0;top=0;" parent="1" vertex="1">
                    <mxGeometry x="950" y="360" width="80" height="120" as="geometry"/>
                </mxCell>
                <mxCell id="113" value="num 4&#39;b" style="externalPins=0;recursiveResize=0;shadow=0;dashed=0;align=center;html=1;strokeWidth=1;shape=mxgraph.rtl.abstract.entity;container=1;collapsible=0;kind=input;drawPins=0;left=0;right=1;bottom=0;top=0;" parent="1" vertex="1">
                    <mxGeometry x="80" y="310" width="90" height="40" as="geometry"/>
                </mxCell>
                <mxCell id="114" value="sel 3&#39;b" style="externalPins=0;recursiveResize=0;shadow=0;dashed=0;align=center;html=1;strokeWidth=1;shape=mxgraph.rtl.abstract.entity;container=1;collapsible=0;kind=input;drawPins=0;left=0;right=1;bottom=0;top=0;" parent="1" vertex="1">
                    <mxGeometry x="80" y="140" width="90" height="40" as="geometry"/>
                </mxCell>
                <mxCell id="115" value="write 1&#39;b" style="externalPins=0;recursiveResize=0;shadow=0;dashed=0;align=center;html=1;strokeWidth=1;shape=mxgraph.rtl.abstract.entity;container=1;collapsible=0;kind=input;drawPins=0;left=0;right=1;bottom=0;top=0;" parent="1" vertex="1">
                    <mxGeometry x="81" y="380" width="90" height="40" as="geometry"/>
                </mxCell>
                <mxCell id="116" style="edgeStyle=orthogonalEdgeStyle;html=1;exitX=0;exitY=0;exitDx=90;exitDy=20;exitPerimeter=0;entryX=-0.01;entryY=0.443;entryDx=0;entryDy=0;entryPerimeter=0;" parent="1" source="119" target="158" edge="1">
                    <mxGeometry relative="1" as="geometry">
                        <Array as="points">
                            <mxPoint x="300" y="255"/>
                            <mxPoint x="300" y="253"/>
                        </Array>
                    </mxGeometry>
                </mxCell>
                <mxCell id="117" style="edgeStyle=orthogonalEdgeStyle;html=1;exitX=0;exitY=0;exitDx=90;exitDy=20;exitPerimeter=0;entryX=0;entryY=0.5;entryDx=0;entryDy=0;" parent="1" source="119" target="157" edge="1">
                    <mxGeometry relative="1" as="geometry">
                        <Array as="points">
                            <mxPoint x="300" y="255"/>
                            <mxPoint x="300" y="288"/>
                        </Array>
                    </mxGeometry>
                </mxCell>
                <mxCell id="118" style="edgeStyle=orthogonalEdgeStyle;html=1;exitX=0;exitY=0;exitDx=90;exitDy=20;exitPerimeter=0;entryX=0;entryY=0.5;entryDx=0;entryDy=0;" parent="1" source="119" target="148" edge="1">
                    <mxGeometry relative="1" as="geometry">
                        <Array as="points">
                            <mxPoint x="300" y="255"/>
                            <mxPoint x="300" y="330"/>
                            <mxPoint x="600" y="330"/>
                            <mxPoint x="600" y="288"/>
                        </Array>
                    </mxGeometry>
                </mxCell>
                <mxCell id="119" value="clk" style="externalPins=0;recursiveResize=0;shadow=0;dashed=0;align=center;html=1;strokeWidth=1;shape=mxgraph.rtl.abstract.entity;container=1;collapsible=0;kind=input;drawPins=0;left=0;right=1;bottom=0;top=0;" parent="1" vertex="1">
                    <mxGeometry x="80" y="235" width="90" height="40" as="geometry"/>
                </mxCell>
                <mxCell id="120" style="edgeStyle=orthogonalEdgeStyle;html=1;entryX=0.126;entryY=0.909;entryDx=0;entryDy=0;entryPerimeter=0;" parent="1" source="124" target="160" edge="1">
                    <mxGeometry relative="1" as="geometry">
                        <Array as="points">
                            <mxPoint x="450" y="500"/>
                        </Array>
                    </mxGeometry>
                </mxCell>
                <mxCell id="121" value="reset" style="edgeLabel;html=1;align=center;verticalAlign=middle;resizable=0;points=[];" parent="120" vertex="1" connectable="0">
                    <mxGeometry x="0.8242" relative="1" as="geometry">
                        <mxPoint y="18" as="offset"/>
                    </mxGeometry>
                </mxCell>
                <mxCell id="122" style="edgeStyle=orthogonalEdgeStyle;html=1;exitX=0;exitY=0;exitDx=90;exitDy=20;exitPerimeter=0;entryX=0.5;entryY=1;entryDx=0;entryDy=0;" parent="1" source="124" target="147" edge="1">
                    <mxGeometry relative="1" as="geometry">
                        <Array as="points">
                            <mxPoint x="686" y="500"/>
                        </Array>
                    </mxGeometry>
                </mxCell>
                <mxCell id="123" value="reset" style="edgeLabel;html=1;align=center;verticalAlign=middle;resizable=0;points=[];" parent="122" vertex="1" connectable="0">
                    <mxGeometry x="0.8029" y="-1" relative="1" as="geometry">
                        <mxPoint as="offset"/>
                    </mxGeometry>
                </mxCell>
                <mxCell id="124" value="reset 1&#39;b" style="externalPins=0;recursiveResize=0;shadow=0;dashed=0;align=center;html=1;strokeWidth=1;shape=mxgraph.rtl.abstract.entity;container=1;collapsible=0;kind=input;drawPins=0;left=0;right=1;bottom=0;top=0;" parent="1" vertex="1">
                    <mxGeometry x="81" y="480" width="90" height="40" as="geometry"/>
                </mxCell>
                <mxCell id="125" style="edgeStyle=orthogonalEdgeStyle;html=1;" parent="1" source="126" target="145" edge="1">
                    <mxGeometry relative="1" as="geometry"/>
                </mxCell>
                <UserObject label="&lt;div&gt;8&lt;/div&gt;D - Flip Flops" link="data:page/id,B0gr_-n1PJUmQjPBUHlx" id="126">
                    <mxCell style="externalPins=0;recursiveResize=0;shadow=0;dashed=0;align=center;html=1;strokeWidth=1;shape=mxgraph.rtl.abstract.entity;container=1;collapsible=0;kind=sequential;drawPins=0;left=3;right=2;bottom=0;top=0;" parent="1" vertex="1">
                        <mxGeometry x="560" y="360" width="80" height="120" as="geometry"/>
                    </mxCell>
                </UserObject>
                <mxCell id="127" style="edgeStyle=elbowEdgeStyle;html=1;exitX=0;exitY=0;exitDx=90;exitDy=20;exitPerimeter=0;entryX=0;entryY=0;entryDx=0;entryDy=30;entryPerimeter=0;" parent="1" source="113" target="126" edge="1">
                    <mxGeometry relative="1" as="geometry">
                        <Array as="points">
                            <mxPoint x="280" y="360"/>
                        </Array>
                    </mxGeometry>
                </mxCell>
                <mxCell id="128" value="num" style="edgeLabel;html=1;align=center;verticalAlign=middle;resizable=0;points=[];" parent="127" vertex="1" connectable="0">
                    <mxGeometry x="0.8097" relative="1" as="geometry">
                        <mxPoint as="offset"/>
                    </mxGeometry>
                </mxCell>
                <mxCell id="129" style="edgeStyle=orthogonalEdgeStyle;html=1;exitX=0;exitY=0;exitDx=90;exitDy=20;exitPerimeter=0;entryX=0.488;entryY=-0.005;entryDx=0;entryDy=0;entryPerimeter=0;" parent="1" source="119" target="126" edge="1">
                    <mxGeometry relative="1" as="geometry">
                        <Array as="points">
                            <mxPoint x="300" y="255"/>
                            <mxPoint x="300" y="330"/>
                            <mxPoint x="600" y="330"/>
                            <mxPoint x="600" y="359"/>
                        </Array>
                    </mxGeometry>
                </mxCell>
                <mxCell id="130" value="clk" style="edgeLabel;html=1;align=center;verticalAlign=middle;resizable=0;points=[];" parent="129" vertex="1" connectable="0">
                    <mxGeometry x="-0.6379" y="-2" relative="1" as="geometry">
                        <mxPoint x="-1" as="offset"/>
                    </mxGeometry>
                </mxCell>
                <mxCell id="131" value="clk" style="edgeLabel;html=1;align=center;verticalAlign=middle;resizable=0;points=[];" parent="129" vertex="1" connectable="0">
                    <mxGeometry x="0.8109" y="-3" relative="1" as="geometry">
                        <mxPoint y="-3" as="offset"/>
                    </mxGeometry>
                </mxCell>
                <mxCell id="132" value="" style="group" parent="1" vertex="1" connectable="0">
                    <mxGeometry x="300" y="450" width="40" height="40" as="geometry"/>
                </mxCell>
                <mxCell id="133" value="" style="triangle;whiteSpace=wrap;html=1;" parent="132" vertex="1">
                    <mxGeometry width="33.33333333333333" height="40" as="geometry"/>
                </mxCell>
                <mxCell id="134" value="" style="ellipse;whiteSpace=wrap;html=1;aspect=fixed;" parent="132" vertex="1">
                    <mxGeometry x="33.33333333333333" y="16" width="6.666666666666666" height="6.666666666666666" as="geometry"/>
                </mxCell>
                <mxCell id="135" value="&lt;div&gt;8 -&amp;nbsp;&lt;span style=&quot;background-color: transparent;&quot;&gt;Seven&lt;/span&gt;&lt;/div&gt;&lt;div&gt;Segment&lt;/div&gt;Displays&lt;div&gt;&lt;font color=&quot;#000000&quot;&gt;&lt;br&gt;&lt;/font&gt;&lt;div&gt;(active low)&lt;/div&gt;&lt;/div&gt;" style="externalPins=0;recursiveResize=0;shadow=0;dashed=0;align=center;html=1;strokeWidth=1;shape=mxgraph.rtl.abstract.entity;container=1;collapsible=0;kind=sequential;drawPins=0;left=3;right=2;bottom=0;top=0;" parent="1" vertex="1">
                    <mxGeometry x="1070" y="360" width="80" height="120" as="geometry"/>
                </mxCell>
                <mxCell id="136" style="edgeStyle=orthogonalEdgeStyle;html=1;exitX=0;exitY=0;exitDx=90;exitDy=20;exitPerimeter=0;entryX=0;entryY=0;entryDx=0;entryDy=60;entryPerimeter=0;" parent="1" source="114" target="169" edge="1">
                    <mxGeometry relative="1" as="geometry">
                        <mxPoint x="400" y="640" as="targetPoint"/>
                    </mxGeometry>
                </mxCell>
                <mxCell id="137" style="edgeStyle=orthogonalEdgeStyle;html=1;exitX=0;exitY=0;exitDx=90;exitDy=20;exitPerimeter=0;" parent="1" source="124" edge="1">
                    <mxGeometry relative="1" as="geometry">
                        <Array as="points">
                            <mxPoint x="450" y="500"/>
                            <mxPoint x="450" y="420"/>
                        </Array>
                        <mxPoint x="560" y="420" as="targetPoint"/>
                    </mxGeometry>
                </mxCell>
                <mxCell id="138" value="reset" style="edgeLabel;html=1;align=center;verticalAlign=middle;resizable=0;points=[];" parent="137" vertex="1" connectable="0">
                    <mxGeometry x="0.5955" relative="1" as="geometry">
                        <mxPoint x="-39" y="71" as="offset"/>
                    </mxGeometry>
                </mxCell>
                <mxCell id="139" value="reset" style="edgeLabel;html=1;align=center;verticalAlign=middle;resizable=0;points=[];" parent="137" vertex="1" connectable="0">
                    <mxGeometry x="0.8311" y="-2" relative="1" as="geometry">
                        <mxPoint as="offset"/>
                    </mxGeometry>
                </mxCell>
                <mxCell id="140" value="" style="shape=or;whiteSpace=wrap;html=1;" parent="1" vertex="1">
                    <mxGeometry x="360" y="430" width="40" height="50" as="geometry"/>
                </mxCell>
                <mxCell id="141" style="edgeStyle=orthogonalEdgeStyle;html=1;exitX=1;exitY=0.5;exitDx=0;exitDy=0;entryX=0.004;entryY=0.771;entryDx=0;entryDy=0;entryPerimeter=0;" parent="1" source="134" target="140" edge="1">
                    <mxGeometry relative="1" as="geometry"/>
                </mxCell>
                <mxCell id="142" style="edgeStyle=orthogonalEdgeStyle;html=1;entryX=0;entryY=0.25;entryDx=0;entryDy=0;entryPerimeter=0;exitX=0;exitY=0;exitDx=90;exitDy=20;exitPerimeter=0;" parent="1" source="115" target="140" edge="1">
                    <mxGeometry relative="1" as="geometry">
                        <mxPoint x="191" y="470" as="sourcePoint"/>
                        <Array as="points">
                            <mxPoint x="260" y="400"/>
                            <mxPoint x="260" y="442"/>
                        </Array>
                    </mxGeometry>
                </mxCell>
                <mxCell id="143" style="edgeStyle=orthogonalEdgeStyle;html=1;entryX=0;entryY=0;entryDx=0;entryDy=90;entryPerimeter=0;" parent="1" source="140" target="126" edge="1">
                    <mxGeometry relative="1" as="geometry">
                        <mxPoint x="519" y="444" as="targetPoint"/>
                    </mxGeometry>
                </mxCell>
                <mxCell id="144" value="sel" style="edgeLabel;html=1;align=center;verticalAlign=middle;resizable=0;points=[];" parent="143" vertex="1" connectable="0">
                    <mxGeometry x="0.5505" relative="1" as="geometry">
                        <mxPoint as="offset"/>
                    </mxGeometry>
                </mxCell>
                <mxCell id="145" value="8x1&lt;div&gt;mux&lt;/div&gt;" style="externalPins=0;recursiveResize=0;shadow=0;dashed=0;align=center;html=1;strokeWidth=1;shape=mxgraph.rtl.abstract.entity;container=1;collapsible=0;kind=mux;drawPins=0;left=4;right=1;bottom=0;top=0;" parent="1" vertex="1">
                    <mxGeometry x="800" y="350" width="30" height="100" as="geometry"/>
                </mxCell>
                <mxCell id="146" value="" style="group" parent="1" vertex="1" connectable="0">
                    <mxGeometry x="651" y="240" width="90" height="70" as="geometry"/>
                </mxCell>
                <mxCell id="147" value="" style="whiteSpace=wrap;html=1;aspect=fixed;" parent="146" vertex="1">
                    <mxGeometry width="70" height="70" as="geometry"/>
                </mxCell>
                <mxCell id="148" value="" style="triangle;whiteSpace=wrap;html=1;" parent="146" vertex="1">
                    <mxGeometry y="35" width="20" height="26.25" as="geometry"/>
                </mxCell>
                <mxCell id="149" value="T" style="text;html=1;align=center;verticalAlign=middle;resizable=0;points=[];autosize=1;strokeColor=none;fillColor=none;" parent="146" vertex="1">
                    <mxGeometry width="30" height="30" as="geometry"/>
                </mxCell>
                <mxCell id="150" value="Q" style="text;html=1;align=center;verticalAlign=middle;resizable=0;points=[];autosize=1;strokeColor=none;fillColor=none;" parent="146" vertex="1">
                    <mxGeometry x="40" width="30" height="30" as="geometry"/>
                </mxCell>
                <mxCell id="151" value="Q&#39;" style="text;html=1;align=center;verticalAlign=middle;resizable=0;points=[];autosize=1;strokeColor=none;fillColor=none;" parent="146" vertex="1">
                    <mxGeometry x="35" y="43.75" width="40" height="30" as="geometry"/>
                </mxCell>
                <mxCell id="152" value="sel counter" style="text;html=1;align=center;verticalAlign=middle;resizable=0;points=[];autosize=1;strokeColor=none;fillColor=none;" parent="146" vertex="1">
                    <mxGeometry x="-5" y="-30" width="80" height="30" as="geometry"/>
                </mxCell>
                <mxCell id="153" style="edgeStyle=none;html=1;entryX=0.071;entryY=0.486;entryDx=0;entryDy=0;entryPerimeter=0;" parent="1" source="159" target="149" edge="1">
                    <mxGeometry relative="1" as="geometry"/>
                </mxCell>
                <mxCell id="154" value="" style="group" parent="1" vertex="1" connectable="0">
                    <mxGeometry x="380" y="200" width="120" height="110" as="geometry"/>
                </mxCell>
                <mxCell id="155" value="" style="group" parent="154" vertex="1" connectable="0">
                    <mxGeometry x="30" y="40" width="90" height="70" as="geometry"/>
                </mxCell>
                <mxCell id="156" value="" style="whiteSpace=wrap;html=1;aspect=fixed;" parent="155" vertex="1">
                    <mxGeometry width="70" height="70" as="geometry"/>
                </mxCell>
                <mxCell id="157" value="" style="triangle;whiteSpace=wrap;html=1;" parent="155" vertex="1">
                    <mxGeometry y="35" width="20" height="26.25" as="geometry"/>
                </mxCell>
                <mxCell id="158" value="T" style="text;html=1;align=center;verticalAlign=middle;resizable=0;points=[];autosize=1;strokeColor=none;fillColor=none;" parent="155" vertex="1">
                    <mxGeometry width="30" height="30" as="geometry"/>
                </mxCell>
                <mxCell id="159" value="Q" style="text;html=1;align=center;verticalAlign=middle;resizable=0;points=[];autosize=1;strokeColor=none;fillColor=none;" parent="155" vertex="1">
                    <mxGeometry x="40" width="30" height="30" as="geometry"/>
                </mxCell>
                <mxCell id="160" value="Q&#39;" style="text;html=1;align=center;verticalAlign=middle;resizable=0;points=[];autosize=1;strokeColor=none;fillColor=none;" parent="155" vertex="1">
                    <mxGeometry x="35" y="43.75" width="40" height="30" as="geometry"/>
                </mxCell>
                <mxCell id="161" value="100MHz to 100Hz&lt;div&gt;&amp;nbsp;converter&lt;/div&gt;" style="text;html=1;align=center;verticalAlign=middle;resizable=0;points=[];autosize=1;strokeColor=none;fillColor=none;" parent="154" vertex="1">
                    <mxGeometry width="120" height="40" as="geometry"/>
                </mxCell>
                <mxCell id="162" style="edgeStyle=orthogonalEdgeStyle;html=1;entryX=0;entryY=0;entryDx=0;entryDy=20;entryPerimeter=0;exitX=1.041;exitY=0.516;exitDx=0;exitDy=0;exitPerimeter=0;" parent="1" source="150" target="169" edge="1">
                    <mxGeometry relative="1" as="geometry">
                        <mxPoint x="590" y="520" as="targetPoint"/>
                        <Array as="points">
                            <mxPoint x="760" y="256"/>
                            <mxPoint x="760" y="50"/>
                            <mxPoint x="260" y="50"/>
                            <mxPoint x="260" y="120"/>
                        </Array>
                        <mxPoint x="770" y="320" as="sourcePoint"/>
                    </mxGeometry>
                </mxCell>
                <mxCell id="163" value="counter" style="edgeLabel;html=1;align=center;verticalAlign=middle;resizable=0;points=[];" parent="162" vertex="1" connectable="0">
                    <mxGeometry x="0.2981" y="1" relative="1" as="geometry">
                        <mxPoint x="-173" y="69" as="offset"/>
                    </mxGeometry>
                </mxCell>
                <mxCell id="164" style="edgeStyle=orthogonalEdgeStyle;html=1;entryX=0.551;entryY=0.083;entryDx=0;entryDy=0;entryPerimeter=0;exitX=1.027;exitY=0.487;exitDx=0;exitDy=0;exitPerimeter=0;" parent="1" source="150" target="145" edge="1">
                    <mxGeometry relative="1" as="geometry">
                        <Array as="points">
                            <mxPoint x="760" y="255"/>
                            <mxPoint x="760" y="265"/>
                            <mxPoint x="817" y="265"/>
                        </Array>
                    </mxGeometry>
                </mxCell>
                <mxCell id="165" style="edgeStyle=none;html=1;exitX=0;exitY=0;exitDx=30;exitDy=50;exitPerimeter=0;entryX=0;entryY=0;entryDx=0;entryDy=20;entryPerimeter=0;" parent="1" source="145" target="173" edge="1">
                    <mxGeometry relative="1" as="geometry"/>
                </mxCell>
                <mxCell id="166" style="edgeStyle=none;html=1;entryX=0;entryY=0;entryDx=0;entryDy=60;entryPerimeter=0;" parent="1" source="112" target="135" edge="1">
                    <mxGeometry relative="1" as="geometry"/>
                </mxCell>
                <mxCell id="167" style="edgeStyle=orthogonalEdgeStyle;html=1;entryX=0;entryY=0.5;entryDx=0;entryDy=0;exitX=0.472;exitY=1.019;exitDx=0;exitDy=0;exitPerimeter=0;" parent="1" source="168" target="133" edge="1">
                    <mxGeometry relative="1" as="geometry">
                        <Array as="points">
                            <mxPoint x="538" y="410"/>
                            <mxPoint x="280" y="410"/>
                            <mxPoint x="280" y="470"/>
                        </Array>
                    </mxGeometry>
                </mxCell>
                <mxCell id="168" value="sel decoder" style="externalPins=0;recursiveResize=0;shadow=0;dashed=0;align=center;html=1;strokeWidth=1;shape=mxgraph.rtl.abstract.entity;container=1;collapsible=0;kind=sequential;drawPins=0;left=3;right=2;bottom=0;top=0;" parent="1" vertex="1">
                    <mxGeometry x="500" y="80" width="80" height="120" as="geometry"/>
                </mxCell>
                <mxCell id="169" value="2x1&lt;div&gt;mux&lt;/div&gt;" style="externalPins=0;recursiveResize=0;shadow=0;dashed=0;align=center;html=1;strokeWidth=1;shape=mxgraph.rtl.abstract.entity;container=1;collapsible=0;kind=mux;drawPins=0;left=4;right=1;bottom=0;top=0;" parent="1" vertex="1">
                    <mxGeometry x="310" y="100" width="30" height="80" as="geometry"/>
                </mxCell>
                <mxCell id="170" style="edgeStyle=orthogonalEdgeStyle;html=1;exitX=0;exitY=0;exitDx=90;exitDy=20;exitPerimeter=0;entryX=0.615;entryY=0.113;entryDx=0;entryDy=0;entryPerimeter=0;" parent="1" source="115" target="169" edge="1">
                    <mxGeometry relative="1" as="geometry">
                        <Array as="points">
                            <mxPoint x="200" y="400"/>
                            <mxPoint x="200" y="80"/>
                            <mxPoint x="328" y="80"/>
                        </Array>
                    </mxGeometry>
                </mxCell>
                <mxCell id="171" style="edgeStyle=none;html=1;exitX=0;exitY=0;exitDx=30;exitDy=40;exitPerimeter=0;entryX=0;entryY=0;entryDx=0;entryDy=60;entryPerimeter=0;" parent="1" source="169" target="168" edge="1">
                    <mxGeometry relative="1" as="geometry"/>
                </mxCell>
                <mxCell id="172" style="edgeStyle=orthogonalEdgeStyle;html=1;entryX=0.455;entryY=-0.018;entryDx=0;entryDy=0;entryPerimeter=0;" parent="1" source="168" target="135" edge="1">
                    <mxGeometry relative="1" as="geometry">
                        <mxPoint x="929.52" y="486.1424999999999" as="targetPoint"/>
                        <Array as="points">
                            <mxPoint x="1106" y="140"/>
                        </Array>
                    </mxGeometry>
                </mxCell>
                <mxCell id="173" value="2x1&lt;div&gt;mux&lt;/div&gt;" style="externalPins=0;recursiveResize=0;shadow=0;dashed=0;align=center;html=1;strokeWidth=1;shape=mxgraph.rtl.abstract.entity;container=1;collapsible=0;kind=mux;drawPins=0;left=4;right=1;bottom=0;top=0;" parent="1" vertex="1">
                    <mxGeometry x="890" y="380" width="30" height="80" as="geometry"/>
                </mxCell>
                <mxCell id="174" value="num" style="edgeStyle=orthogonalEdgeStyle;html=1;exitX=0;exitY=0;exitDx=90;exitDy=20;exitPerimeter=0;entryX=0;entryY=0;entryDx=0;entryDy=60;entryPerimeter=0;" parent="1" source="113" target="173" edge="1">
                    <mxGeometry relative="1" as="geometry">
                        <Array as="points">
                            <mxPoint x="240" y="330"/>
                            <mxPoint x="240" y="530"/>
                            <mxPoint x="850" y="530"/>
                            <mxPoint x="850" y="440"/>
                        </Array>
                    </mxGeometry>
                </mxCell>
                <mxCell id="179" value="num" style="edgeLabel;html=1;align=center;verticalAlign=middle;resizable=0;points=[];" parent="174" vertex="1" connectable="0">
                    <mxGeometry x="0.8764" y="1" relative="1" as="geometry">
                        <mxPoint y="-1" as="offset"/>
                    </mxGeometry>
                </mxCell>
                <mxCell id="175" style="edgeStyle=none;html=1;exitX=0;exitY=0;exitDx=30;exitDy=40;exitPerimeter=0;entryX=0;entryY=0;entryDx=0;entryDy=60;entryPerimeter=0;" parent="1" source="173" target="112" edge="1">
                    <mxGeometry relative="1" as="geometry"/>
                </mxCell>
                <mxCell id="176" style="edgeStyle=orthogonalEdgeStyle;html=1;entryX=0.479;entryY=0.922;entryDx=0;entryDy=0;entryPerimeter=0;" parent="1" source="115" target="173" edge="1">
                    <mxGeometry relative="1" as="geometry">
                        <Array as="points">
                            <mxPoint x="200" y="400"/>
                            <mxPoint x="200" y="540"/>
                            <mxPoint x="904" y="540"/>
                        </Array>
                    </mxGeometry>
                </mxCell>
                <mxCell id="178" value="write" style="edgeLabel;html=1;align=center;verticalAlign=middle;resizable=0;points=[];" parent="176" vertex="1" connectable="0">
                    <mxGeometry x="0.8628" y="2" relative="1" as="geometry">
                        <mxPoint as="offset"/>
                    </mxGeometry>
                </mxCell>
            </root>
        </mxGraphModel>
    </diagram>
    <diagram id="B0gr_-n1PJUmQjPBUHlx" name="Flip Flops">
        <mxGraphModel dx="836" dy="547" grid="1" gridSize="10" guides="1" tooltips="1" connect="1" arrows="1" fold="1" page="1" pageScale="1" pageWidth="1000" pageHeight="1000" math="0" shadow="0">
            <root>
                <mxCell id="0"/>
                <mxCell id="1" parent="0"/>
                <mxCell id="Jf6BggblMCW3SHoGojlO-1" value="" style="group" vertex="1" connectable="0" parent="1">
                    <mxGeometry x="290" y="80" width="160" height="300" as="geometry"/>
                </mxCell>
                <mxCell id="Jf6BggblMCW3SHoGojlO-2" value="" style="externalPins=0;recursiveResize=0;shadow=0;dashed=0;align=center;html=1;strokeWidth=1;shape=mxgraph.rtl.abstract.entity;left=,:clk;right=,:np;top=0;bottom=0;drawPins=0;snapToPoint=1;resizable=0;editable=1;" vertex="1" parent="Jf6BggblMCW3SHoGojlO-1">
                    <mxGeometry x="120" width="40" height="60" as="geometry"/>
                </mxCell>
                <mxCell id="Jf6BggblMCW3SHoGojlO-3" value="" style="externalPins=0;recursiveResize=0;shadow=0;dashed=0;align=center;html=1;strokeWidth=1;shape=mxgraph.rtl.abstract.entity;left=,:clk;right=,:np;top=0;bottom=0;drawPins=0;snapToPoint=1;resizable=0;editable=1;" vertex="1" parent="Jf6BggblMCW3SHoGojlO-1">
                    <mxGeometry x="120" y="80" width="40" height="60" as="geometry"/>
                </mxCell>
                <mxCell id="Jf6BggblMCW3SHoGojlO-4" value="" style="externalPins=0;recursiveResize=0;shadow=0;dashed=0;align=center;html=1;strokeWidth=1;shape=mxgraph.rtl.abstract.entity;left=,:clk;right=,:np;top=0;bottom=0;drawPins=0;snapToPoint=1;resizable=0;editable=1;" vertex="1" parent="Jf6BggblMCW3SHoGojlO-1">
                    <mxGeometry x="120" y="160" width="40" height="60" as="geometry"/>
                </mxCell>
                <mxCell id="Jf6BggblMCW3SHoGojlO-5" value="" style="externalPins=0;recursiveResize=0;shadow=0;dashed=0;align=center;html=1;strokeWidth=1;shape=mxgraph.rtl.abstract.entity;left=,:clk;right=,:np;top=0;bottom=0;drawPins=0;snapToPoint=1;resizable=0;editable=1;" vertex="1" parent="Jf6BggblMCW3SHoGojlO-1">
                    <mxGeometry x="120" y="240" width="40" height="60" as="geometry"/>
                </mxCell>
                <mxCell id="Jf6BggblMCW3SHoGojlO-6" value="" style="externalPins=0;recursiveResize=0;shadow=0;dashed=0;align=center;html=1;strokeWidth=1;shape=mxgraph.rtl.abstract.entity;left=,:clk;right=,:np;top=0;bottom=0;drawPins=0;snapToPoint=1;resizable=0;editable=1;" vertex="1" parent="Jf6BggblMCW3SHoGojlO-1">
                    <mxGeometry y="160" width="40" height="60" as="geometry"/>
                </mxCell>
                <mxCell id="Jf6BggblMCW3SHoGojlO-7" value="" style="externalPins=0;recursiveResize=0;shadow=0;dashed=0;align=center;html=1;strokeWidth=1;shape=mxgraph.rtl.abstract.entity;left=,:clk;right=,:np;top=0;bottom=0;drawPins=0;snapToPoint=1;resizable=0;editable=1;" vertex="1" parent="Jf6BggblMCW3SHoGojlO-1">
                    <mxGeometry y="240" width="40" height="60" as="geometry"/>
                </mxCell>
                <mxCell id="Jf6BggblMCW3SHoGojlO-8" value="" style="externalPins=0;recursiveResize=0;shadow=0;dashed=0;align=center;html=1;strokeWidth=1;shape=mxgraph.rtl.abstract.entity;left=,:clk;right=,:np;top=0;bottom=0;drawPins=0;snapToPoint=1;resizable=0;editable=1;" vertex="1" parent="Jf6BggblMCW3SHoGojlO-1">
                    <mxGeometry width="40" height="60" as="geometry"/>
                </mxCell>
                <mxCell id="Jf6BggblMCW3SHoGojlO-9" value="" style="externalPins=0;recursiveResize=0;shadow=0;dashed=0;align=center;html=1;strokeWidth=1;shape=mxgraph.rtl.abstract.entity;left=,:clk;right=,:np;top=0;bottom=0;drawPins=0;snapToPoint=1;resizable=0;editable=1;" vertex="1" parent="Jf6BggblMCW3SHoGojlO-1">
                    <mxGeometry y="80" width="40" height="60" as="geometry"/>
                </mxCell>
            </root>
        </mxGraphModel>
    </diagram>
</mxfile>